<svg xmlns="http://www.w3.org/2000/svg" xmlns:xlink="http://www.w3.org/1999/xlink" width="20px" height="20px" viewBox="0 0 20 20" version="1.1">
  <g id="surface1">
    <path style=" stroke:none;fill-rule:nonzero;fill:#7A55EA;fill-opacity:1;" d="M 8.75 13.75 C 8.398438 13.75 8.066406 13.601562 7.839844 13.347656 L 5.371094 10.871094 C 5.140625 10.65625 5 10.328125 5 9.988281 C 5 9.652344 5.140625 9.324219 5.386719 9.089844 C 5.785156 8.664062 6.683594 8.632812 7.144531 9.121094 L 8.75 10.730469 L 12.871094 6.597656 C 13.300781 6.140625 14.183594 6.121094 14.644531 6.613281 C 14.859375 6.816406 15 7.140625 15 7.480469 C 15 7.816406 14.863281 8.140625 14.625 8.371094 L 9.628906 13.378906 C 9.433594 13.601562 9.101562 13.75 8.75 13.75 Z M 8.75 13.75 " />
  </g>
</svg>